<svg id="Layer_1" data-name="Layer 1" xmlns="http://www.w3.org/2000/svg" width="880.63" height="883.08" viewBox="0 0 880.63 883.08"><defs><style>.cls-1{fill:#c4c6c0;}.cls-2{fill:#8f938f;}.cls-3{fill:#aeea50;}.cls-4{fill:#8bc43f;}.cls-5{fill:#fff;}</style></defs><title>charger</title><path class="cls-1" d="M771.82,132.27h0a71,71,0,0,0-100.37,0L318.52,485.19a71,71,0,0,0,0,100.38h0a71,71,0,0,0,100.38,0L771.82,232.64A71,71,0,0,0,771.82,132.27Z" transform="translate(-127.44 -111.48)"/><path class="cls-2" d="M771.82,132.27h0A70.11,70.11,0,0,0,752,118.58a70.75,70.75,0,0,1-13.69,80.51L385.34,552a70.77,70.77,0,0,1-80.51,13.68,70.5,70.5,0,0,0,13.69,19.87h0a71,71,0,0,0,100.38,0L771.82,232.64A71,71,0,0,0,771.82,132.27Z" transform="translate(-127.44 -111.48)"/><path class="cls-1" d="M987.29,347.73h0a71,71,0,0,0-100.37,0L534,700.66A71,71,0,0,0,534,801h0a71,71,0,0,0,100.37,0L987.29,448.11A71,71,0,0,0,987.29,347.73Z" transform="translate(-127.44 -111.48)"/><path class="cls-2" d="M987.29,347.73h0A70.66,70.66,0,0,0,967.43,334a70.78,70.78,0,0,1-13.69,80.52L600.81,767.48a70.75,70.75,0,0,1-80.51,13.69A70.11,70.11,0,0,0,534,801h0a71,71,0,0,0,100.37,0L987.29,448.11A71,71,0,0,0,987.29,347.73Z" transform="translate(-127.44 -111.48)"/><path class="cls-1" d="M615.37,500.68a71,71,0,0,0-100.38,0L162.06,853.61A71,71,0,1,0,262.44,954L615.36,601.06A71,71,0,0,0,615.37,500.68Z" transform="translate(-127.44 -111.48)"/><path class="cls-2" d="M615.37,500.68a70.18,70.18,0,0,0-18.08-12.74,70.74,70.74,0,0,1-12.74,82.3L231.62,923.17a70.74,70.74,0,0,1-82.3,12.74A70.2,70.2,0,0,0,162.06,954a71,71,0,0,0,100.38,0L615.36,601.06A71,71,0,0,0,615.37,500.68Z" transform="translate(-127.44 -111.48)"/><path class="cls-3" d="M818.77,632.52,489.49,303.23a92.43,92.43,0,0,0-135,4.6L150.22,542a92.42,92.42,0,0,0,4.29,126.1l299.4,299.4A92.42,92.42,0,0,0,580,971.78L814.18,767.51A92.41,92.41,0,0,0,818.77,632.52Z" transform="translate(-127.44 -111.48)"/><path class="cls-4" d="M829.13,645a92.28,92.28,0,0,1-9,9.15L586,858.46a92.42,92.42,0,0,1-126.11-4.3L160.48,554.77a92.67,92.67,0,0,1-10.39-12.6,92.41,92.41,0,0,0,4.42,125.92l299.4,299.4A92.42,92.42,0,0,0,580,971.78L814.18,767.51A92.36,92.36,0,0,0,829.13,645Z" transform="translate(-127.44 -111.48)"/><polygon class="cls-5" points="343.13 500.07 206.21 560.48 158.62 581.48 213.14 577.84 463.88 561.12 379.76 477.01 489.53 430.91 515.44 420.03 465.24 369.83 440.67 379.88 286.15 443.09 343.13 500.07"/></svg>