<svg id="Layer_1" data-name="Layer 1" xmlns="http://www.w3.org/2000/svg" width="832.3" height="1025.22" viewBox="0 0 832.3 1025.22"><defs><style>.cls-1{opacity:0.3;}.cls-2{fill:#c4c4c4;}.cls-3{fill:#e0e0e0;}.cls-4{fill:#ebebeb;}.cls-5{fill:#f5f5f5;}.cls-6{fill:#fff;}.cls-7{fill:#e6e1dd;}.cls-8{fill:#8bc43f;}.cls-9{fill:#0a0808;}</style></defs><title>iris</title><polygon class="cls-1" points="126.98 617.86 418.59 548.25 710.84 617.86 832.3 787.41 710.84 955.67 418.59 1025.22 126.98 955.67 4.88 787.41 126.98 617.86"/><polygon class="cls-2" points="675.42 122.67 750.04 217.12 794.81 329.46 832.3 404.65 809.43 314.26 776.11 202.07 693.33 113.16 628.98 52.47 675.42 122.67"/><polygon class="cls-3" points="588.79 118.67 754.68 405.99 815.78 497.87 832.3 404.65 772.53 204.14 628.98 52.47 539.15 19.02 588.79 118.67"/><polygon class="cls-4" points="283.68 124.84 487.21 172.7 657.23 467.19 596.78 667.14 624.38 771.43 735.13 677.69 815.78 497.87 734.97 225.82 539.15 19.02 343.86 0 207.16 48.78 283.68 124.84"/><polygon class="cls-5" points="96.31 142.92 161.46 202.98 357.16 294.88 486.39 518.73 468.07 734.04 487.57 820.61 624.38 771.43 710.4 579.8 624.17 289.79 415.45 69.51 207.16 48.78 96.31 142.92"/><polygon class="cls-6" points="15.52 321.66 0 415.44 34.76 385.5 116.82 343.06 260.06 382.9 361.55 558.68 324.36 702.53 246.72 752.63 203.41 767.75 292.17 800.84 487.57 820.61 568.36 640.72 487.54 368.67 291.6 161.94 96.31 142.92 15.52 321.66"/><polygon class="cls-7" points="0 415.44 44.29 480.46 88.73 462.72 161.56 511.26 201.07 579.69 206.69 667.03 169.32 697.02 203.41 767.75 347.16 781.95 406.86 650.29 347.09 449.76 203.45 297.98 59.59 283.87 0 415.44"/><polygon class="cls-8" points="0 415.44 22.02 505.51 55.56 618.08 136.42 703.65 203.41 767.75 352.53 786.73 412.51 653.11 351.9 449.93 206.47 296.24 60.54 280.98 0 415.44"/><polygon class="cls-9" points="105.48 492.36 130.09 575.04 189.48 637.86 249.21 643.74 273.66 589.26 248.95 506.42 189.66 443.76 130.16 437.54 105.48 492.36"/></svg>