<svg xmlns="http://www.w3.org/2000/svg" xmlns:xlink="http://www.w3.org/1999/xlink" width="793.08" height="1010" viewBox="0 0 793.08 1010"><defs><style>.cls-1{fill:none;clip-rule:evenodd;}.cls-2{isolation:isolate;}.cls-3,.cls-30,.cls-33,.cls-37,.cls-42{mix-blend-mode:multiply;}.cls-3{fill:url(#radial-gradient);}.cls-4{fill:#68a103;}.cls-11,.cls-15,.cls-5{opacity:0.2;}.cls-10,.cls-11,.cls-13,.cls-15,.cls-20,.cls-32,.cls-5{mix-blend-mode:overlay;}.cls-5{fill:url(#linear-gradient);}.cls-6{fill:#73ad0e;}.cls-7{fill:#84c219;}.cls-8{fill:#94d623;}.cls-12,.cls-19,.cls-27,.cls-61,.cls-9{opacity:0.7;}.cls-12,.cls-19,.cls-22,.cls-23,.cls-29,.cls-31,.cls-39,.cls-61,.cls-68,.cls-9{mix-blend-mode:screen;}.cls-9{fill:url(#radial-gradient-2);}.cls-10,.cls-13,.cls-20,.cls-29,.cls-30,.cls-31,.cls-32{opacity:0.5;}.cls-10{fill:url(#radial-gradient-3);}.cls-11{fill:url(#linear-gradient-2);}.cls-12{fill:url(#radial-gradient-4);}.cls-13{fill:url(#radial-gradient-5);}.cls-14{fill:#5a9403;}.cls-15{fill:url(#linear-gradient-3);}.cls-16{fill:#65a00e;}.cls-17{fill:#77b519;}.cls-18{fill:#87c923;}.cls-19{fill:url(#radial-gradient-6);}.cls-20{fill:url(#radial-gradient-7);}.cls-21{fill:#595959;}.cls-22{fill:url(#linear-gradient-4);}.cls-23{fill:url(#linear-gradient-5);}.cls-24{fill:#8a8a8a;}.cls-25{fill:#7bbf04;}.cls-26{fill:#1fa0d4;}.cls-28{fill:#fff;}.cls-29{fill:url(#linear-gradient-6);}.cls-30{fill:url(#linear-gradient-7);}.cls-31,.cls-32{fill:url(#linear-gradient-8);}.cls-33{fill:url(#radial-gradient-8);}.cls-34{fill:url(#linear-gradient-10);}.cls-35{fill:#d6d6d6;}.cls-36{fill:url(#linear-gradient-11);}.cls-37{fill:url(#linear-gradient-12);}.cls-38,.cls-39,.cls-40,.cls-41,.cls-43,.cls-44,.cls-45,.cls-46,.cls-47,.cls-48,.cls-49,.cls-50,.cls-51,.cls-52,.cls-53,.cls-54,.cls-55,.cls-56,.cls-57,.cls-58,.cls-59,.cls-60,.cls-61{fill-rule:evenodd;}.cls-38{fill:url(#linear-gradient-13);}.cls-39,.cls-68{opacity:0.67;}.cls-39{fill:url(#linear-gradient-14);}.cls-40{fill:url(#linear-gradient-15);}.cls-41{fill:url(#linear-gradient-16);}.cls-43{fill:url(#radial-gradient-9);}.cls-44{fill:url(#radial-gradient-10);}.cls-45{fill:url(#radial-gradient-11);}.cls-46{fill:url(#radial-gradient-12);}.cls-47{fill:url(#radial-gradient-13);}.cls-48{fill:url(#radial-gradient-14);}.cls-49{fill:url(#radial-gradient-15);}.cls-50{fill:url(#radial-gradient-16);}.cls-51{fill:url(#radial-gradient-17);}.cls-52{fill:url(#radial-gradient-18);}.cls-53{fill:url(#radial-gradient-19);}.cls-54{fill:url(#radial-gradient-20);}.cls-55{fill:url(#radial-gradient-21);}.cls-56{fill:url(#radial-gradient-22);}.cls-57{fill:url(#radial-gradient-23);}.cls-58{fill:url(#radial-gradient-24);}.cls-59{fill:url(#radial-gradient-25);}.cls-60{fill:url(#radial-gradient-26);}.cls-61{fill:url(#linear-gradient-17);}.cls-62,.cls-65{mix-blend-mode:soft-light;}.cls-63{clip-path:url(#clip-path);}.cls-64{fill:url(#radial-gradient-27);}.cls-65{fill:url(#radial-gradient-28);}.cls-66{fill:url(#radial-gradient-29);}.cls-67{fill:url(#radial-gradient-30);}.cls-68{fill:url(#linear-gradient-18);}</style><radialGradient id="radial-gradient" cx="4890.65" cy="1.07" r="455.55" gradientTransform="matrix(0, 0.08, -0.27, 0, 633.09, 591.65)" gradientUnits="userSpaceOnUse"><stop offset="0" stop-color="#213301"/><stop offset="0.11" stop-color="#54623b"/><stop offset="0.22" stop-color="#818b6f"/><stop offset="0.34" stop-color="#a8af9b"/><stop offset="0.45" stop-color="#c7ccbf"/><stop offset="0.57" stop-color="#e0e2db"/><stop offset="0.68" stop-color="#f1f2ef"/><stop offset="0.8" stop-color="#fcfcfb"/><stop offset="0.92" stop-color="#fff"/></radialGradient><linearGradient id="linear-gradient" x1="257.51" y1="708.93" x2="316.34" y2="719.3" gradientTransform="matrix(-0.67, -0.74, -0.74, 0.67, 1466.16, 585)" gradientUnits="userSpaceOnUse"><stop offset="0" stop-color="gray"/><stop offset="0.55" stop-color="#419b85"/><stop offset="1" stop-color="gray"/></linearGradient><radialGradient id="radial-gradient-2" cx="248.64" cy="751.3" r="46.08" gradientTransform="matrix(-0.59, -0.66, -0.66, 0.59, 1372.37, 561.05)" gradientUnits="userSpaceOnUse"><stop offset="0" stop-color="#90ff95"/><stop offset="1" stop-color="#213301"/></radialGradient><radialGradient id="radial-gradient-3" cx="246.46" cy="733.34" r="82.64" gradientTransform="matrix(-0.59, -0.66, -0.66, 0.59, 1372.37, 561.05)" gradientUnits="userSpaceOnUse"><stop offset="0" stop-color="#b7e4ff"/><stop offset="1" stop-color="#213301"/></radialGradient><linearGradient id="linear-gradient-2" x1="274.08" y1="639.6" x2="317.54" y2="651.24" gradientTransform="matrix(-0.82, -0.58, -0.58, 0.82, 1344, 403.67)" xlink:href="#linear-gradient"/><radialGradient id="radial-gradient-4" cx="257.5" cy="676.15" r="32.76" gradientTransform="matrix(-0.72, -0.51, -0.51, 0.72, 1251.27, 401.8)" xlink:href="#radial-gradient-2"/><radialGradient id="radial-gradient-5" cx="268.62" cy="672.56" r="49.23" gradientTransform="matrix(-0.72, -0.51, -0.51, 0.72, 1251.27, 401.8)" xlink:href="#radial-gradient-3"/><linearGradient id="linear-gradient-3" x1="70.74" y1="297.06" x2="122.53" y2="310.94" gradientTransform="matrix(-0.08, -1, -1, 0.08, 1061.38, 999.48)" gradientUnits="userSpaceOnUse"><stop offset="0" stop-color="#737480"/><stop offset="0.55" stop-color="#348e85"/><stop offset="1" stop-color="#737480"/></linearGradient><radialGradient id="radial-gradient-6" cx="42.27" cy="287.2" r="39.05" gradientTransform="matrix(-0.07, -0.88, -0.88, 0.07, 1002.4, 935.31)" gradientUnits="userSpaceOnUse"><stop offset="0" stop-color="#83f196"/><stop offset="1" stop-color="#132601"/></radialGradient><radialGradient id="radial-gradient-7" cx="55.52" cy="282.92" r="58.67" gradientTransform="matrix(-0.07, -0.88, -0.88, 0.07, 1002.4, 935.31)" gradientUnits="userSpaceOnUse"><stop offset="0" stop-color="#aad7ff"/><stop offset="1" stop-color="#132601"/></radialGradient><linearGradient id="linear-gradient-4" x1="442.75" y1="711.71" x2="485.22" y2="711.71" gradientUnits="userSpaceOnUse"><stop offset="0.79" stop-color="#0c0c0c"/><stop offset="0.82" stop-color="#101010"/><stop offset="0.84" stop-color="#1e1e1e"/><stop offset="0.87" stop-color="#343434"/><stop offset="0.9" stop-color="#535353"/><stop offset="0.93" stop-color="#7a7a7a"/><stop offset="0.96" stop-color="#ababab"/><stop offset="0.99" stop-color="#e3e3e3"/><stop offset="1" stop-color="#fff"/></linearGradient><linearGradient id="linear-gradient-5" x1="442.75" y1="711.71" x2="485.22" y2="711.71" gradientUnits="userSpaceOnUse"><stop offset="0" stop-color="#616161"/><stop offset="0.07" stop-color="#242424"/><stop offset="0.11" stop-color="#0c0c0c"/><stop offset="0.24" stop-color="#404040"/><stop offset="0.27" stop-color="#292929"/><stop offset="0.31" stop-color="#171717"/><stop offset="0.35" stop-color="#0a0a0a"/><stop offset="0.41" stop-color="#020202"/><stop offset="0.53"/><stop offset="0.55" stop-color="#0a0a0a"/><stop offset="0.59" stop-color="#252525"/><stop offset="0.64" stop-color="#515151"/><stop offset="0.7" stop-color="#8e8e8e"/><stop offset="0.76" stop-color="#dbdbdb"/><stop offset="0.77" stop-color="#e8e8e8"/><stop offset="0.88" stop-color="#494949"/><stop offset="1" stop-color="#616161"/></linearGradient><linearGradient id="linear-gradient-6" x1="463.98" y1="964.23" x2="463.98" y2="704.25" gradientUnits="userSpaceOnUse"><stop offset="0.93" stop-color="#0c0c0c"/><stop offset="0.94" stop-color="#101010"/><stop offset="0.94" stop-color="#1e1e1e"/><stop offset="0.95" stop-color="#343434"/><stop offset="0.96" stop-color="#535353"/><stop offset="0.97" stop-color="#7a7a7a"/><stop offset="0.99" stop-color="#ababab"/><stop offset="1" stop-color="#e3e3e3"/><stop offset="1" stop-color="#fff"/></linearGradient><linearGradient id="linear-gradient-7" x1="463.98" y1="964.23" x2="463.98" y2="704.25" gradientUnits="userSpaceOnUse"><stop offset="0" stop-color="#43b8c7"/><stop offset="0" stop-color="#4fbdcb"/><stop offset="0.02" stop-color="#84d1da"/><stop offset="0.03" stop-color="#b0e1e8"/><stop offset="0.04" stop-color="#d2eef2"/><stop offset="0.06" stop-color="#ebf7f9"/><stop offset="0.07" stop-color="#fafdfd"/><stop offset="0.08" stop-color="#fff"/></linearGradient><linearGradient id="linear-gradient-8" x1="396.07" y1="834.24" x2="531.9" y2="834.24" xlink:href="#linear-gradient-5"/><radialGradient id="radial-gradient-8" cx="539.82" cy="2948.72" r="305.15" gradientTransform="translate(57.76 616.11) scale(0.89 0.13)" gradientUnits="userSpaceOnUse"><stop offset="0.01" stop-color="#595959"/><stop offset="0.12" stop-color="#838383"/><stop offset="0.25" stop-color="#a9a9a9"/><stop offset="0.38" stop-color="#c8c8c8"/><stop offset="0.51" stop-color="#e0e0e0"/><stop offset="0.66" stop-color="#f2f2f2"/><stop offset="0.81" stop-color="#fcfcfc"/><stop offset="1" stop-color="#fff"/></radialGradient><linearGradient id="linear-gradient-10" x1="474.77" y1="978.15" x2="598.89" y2="978.15" gradientUnits="userSpaceOnUse"><stop offset="0" stop-color="#9c9c9c"/><stop offset="0.35" stop-color="#dedede"/><stop offset="0.81" stop-color="#8f8f8f"/><stop offset="0.88" stop-color="#989898"/><stop offset="0.98" stop-color="#ababab"/></linearGradient><linearGradient id="linear-gradient-11" x1="504.02" y1="791.95" x2="566.12" y2="791.84" gradientUnits="userSpaceOnUse"><stop offset="0" stop-color="#b8b8b8"/><stop offset="0.35" stop-color="#dedede"/><stop offset="0.81" stop-color="#878787"/><stop offset="0.95" stop-color="#909090"/><stop offset="1" stop-color="#949494"/></linearGradient><linearGradient id="linear-gradient-12" x1="535.88" y1="698.9" x2="535.88" y2="671.27" gradientUnits="userSpaceOnUse"><stop offset="0" stop-color="#fff"/><stop offset="0.4" stop-color="#d4d4d4"/><stop offset="1" stop-color="#8f8f8f"/></linearGradient><linearGradient id="linear-gradient-13" x1="274.25" y1="121.14" x2="664.39" y2="657.59" gradientUnits="userSpaceOnUse"><stop offset="0.07" stop-color="#bababa"/><stop offset="0.15" stop-color="#c6c6c6"/><stop offset="0.3" stop-color="#d5d5d5"/><stop offset="0.42" stop-color="#dbdbdb"/><stop offset="0.76" stop-color="#e0e0e0"/><stop offset="0.99" stop-color="#c4c4c4"/></linearGradient><linearGradient id="linear-gradient-14" x1="378.24" y1="387.5" x2="627.89" y2="730.78" gradientUnits="userSpaceOnUse"><stop offset="0.16" stop-color="#fff"/><stop offset="0.41" stop-color="#d4d4d4"/><stop offset="0.81" stop-color="#8a8a8a"/></linearGradient><linearGradient id="linear-gradient-15" x1="410.36" y1="219.65" x2="644.04" y2="714.49" gradientUnits="userSpaceOnUse"><stop offset="0.18" stop-color="#fff"/><stop offset="0.42" stop-color="#efefef"/><stop offset="0.51" stop-color="#e8e8e8"/><stop offset="0.86" stop-color="#ededed"/></linearGradient><linearGradient id="linear-gradient-16" x1="377.6" y1="392.83" x2="628.42" y2="737.71" gradientUnits="userSpaceOnUse"><stop offset="0" stop-color="#4f4f4f"/><stop offset="0.27" stop-color="#a0a0a0"/><stop offset="0.84" stop-color="#424242"/><stop offset="0.89" stop-color="#4b4b4b"/><stop offset="0.97" stop-color="#636363"/><stop offset="1" stop-color="#6f6f6f"/></linearGradient><radialGradient id="radial-gradient-9" cx="528.95" cy="231.44" r="468.82" gradientTransform="translate(0 18.61) scale(1 0.97)" gradientUnits="userSpaceOnUse"><stop offset="0" stop-color="#1f9cde"/><stop offset="0.47" stop-color="#1471bb"/><stop offset="1" stop-color="#073d91"/></radialGradient><radialGradient id="radial-gradient-10" cx="528.98" cy="231.44" r="468.81" xlink:href="#radial-gradient-9"/><radialGradient id="radial-gradient-11" cx="528.98" cy="231.45" r="468.78" xlink:href="#radial-gradient-9"/><radialGradient id="radial-gradient-12" cx="529" cy="231.49" r="468.71" xlink:href="#radial-gradient-9"/><radialGradient id="radial-gradient-13" cx="528.99" cy="231.48" r="468.74" xlink:href="#radial-gradient-9"/><radialGradient id="radial-gradient-14" cx="528.99" cy="231.49" r="468.72" xlink:href="#radial-gradient-9"/><radialGradient id="radial-gradient-15" cx="528.98" cy="231.47" r="468.77" xlink:href="#radial-gradient-9"/><radialGradient id="radial-gradient-16" cx="528.97" cy="231.46" r="468.75" xlink:href="#radial-gradient-9"/><radialGradient id="radial-gradient-17" cx="528.98" cy="231.46" r="468.76" xlink:href="#radial-gradient-9"/><radialGradient id="radial-gradient-18" cx="546.25" cy="266.19" r="411.13" gradientTransform="translate(0 18.61) scale(1 0.97)" gradientUnits="userSpaceOnUse"><stop offset="0" stop-color="#97de67"/><stop offset="1" stop-color="#8bc43f"/></radialGradient><radialGradient id="radial-gradient-19" cx="546.28" cy="266.2" r="411.07" xlink:href="#radial-gradient-18"/><radialGradient id="radial-gradient-20" cx="546.27" cy="266.2" r="411.06" xlink:href="#radial-gradient-18"/><radialGradient id="radial-gradient-21" cx="546.29" cy="266.23" r="411.06" xlink:href="#radial-gradient-18"/><radialGradient id="radial-gradient-22" cx="546.28" cy="266.23" r="411.05" xlink:href="#radial-gradient-18"/><radialGradient id="radial-gradient-23" cx="546.28" cy="266.22" r="411.06" xlink:href="#radial-gradient-18"/><radialGradient id="radial-gradient-24" cx="546.28" cy="266.19" r="411.11" xlink:href="#radial-gradient-18"/><radialGradient id="radial-gradient-25" cx="546.27" cy="266.18" r="411.08" xlink:href="#radial-gradient-18"/><radialGradient id="radial-gradient-26" cx="546.35" cy="266.18" r="410.99" xlink:href="#radial-gradient-18"/><linearGradient id="linear-gradient-17" x1="538.2" y1="230.92" x2="538.2" y2="496.32" gradientUnits="userSpaceOnUse"><stop offset="0.02" stop-color="#e1e1e1"/><stop offset="0.1" stop-color="#d7d7d7"/><stop offset="0.24" stop-color="#bdbdbd"/><stop offset="0.42" stop-color="#919191"/><stop offset="0.63" stop-color="#555"/><stop offset="0.87" stop-color="#0a0a0a"/><stop offset="0.9"/></linearGradient><clipPath id="clip-path" transform="translate(-165.38 -20)"><path id="SVGID" class="cls-1" d="M689,464.56l101.81-.37c6.87-.05,38-20.66,37.25-24.67L817.2,379.63c-.73-4-37.06-24.42-43.51-24.42l-95.42.23c-6.43,0-37.52,20.61-37.27,24.63l4.47,60C645.75,444.17,682.09,464.56,689,464.56Zm-200.41.24,101.83-.37c6.86,0,40.41-20.65,40.16-24.71l-3.69-60.05c-.27-4-34.15-24.46-40.58-24.46l-95.46.19c-6.44,0-40,20.67-40.15,24.72L448,440.32C447.81,444.4,481.72,464.82,488.56,464.8ZM398.7,355.21l-95.45.23c-6.45,0-42.47,20.69-43.12,24.76l-9.87,60.39c-.68,4,30.76,24.57,37.62,24.54l101.83-.37c6.82,0,42.85-20.71,43.1-24.77l3.51-60.24C436.54,375.72,405.12,355.21,398.7,355.21ZM700.46,593.89l109.62-.36c7.41-.06,40.91-22.27,40.1-26.6l-11.64-64.49c-.79-4.3-39.9-26.28-46.85-26.26L689,476.41c-7,0-40.41,22.21-40.11,26.53l4.79,64.65C653.93,571.94,693.05,593.89,700.46,593.89Zm-215.77.29,109.63-.39c7.39,0,43.5-22.26,43.26-26.63l-4-64.63c-.29-4.35-36.77-26.37-43.69-26.35l-102.79.17c-6.91,0-43.06,22.29-43.21,26.64L441,567.8C440.82,572.2,477.31,594.19,484.69,594.18Zm-96.77-118-102.77.23c-6.95,0-45.72,22.32-46.43,26.67l-10.63,65c-.72,4.36,33.13,26.45,40.52,26.44l109.63-.4c7.36,0,46.14-22.33,46.39-26.68l3.81-64.85C428.69,498.25,394.83,476.16,387.92,476.18Zm105-132.55,94.89-.17c6.4,0,37.6-20.65,37.34-24.67l-3.73-60c-.24-4-31.72-24.57-37.75-24.57l-88.51,0c-6,0-37.17,20.59-37.33,24.68l-2.67,60.15C454.94,323.15,486.49,343.65,492.89,343.63ZM410.4,234.19l-88.55.06c-6,0-39.6,20.64-40.27,24.72l-9.84,60.35c-.69,4.06,28.34,24.63,34.76,24.61l94.9-.21c6.41,0,40.05-20.66,40.28-24.7l3.5-60.21C445.44,254.75,416.36,234.19,410.4,234.19Zm222.69,24.62L636.58,319c.26,4,33.88,24.7,40.28,24.7l94.9.21c6.42,0,35.45-20.55,34.79-24.61L796.69,259c-.65-4.08-34.33-24.72-40.27-24.72l-88.58-.06C661.92,234.19,632.83,254.75,633.09,258.81Z"/></clipPath><radialGradient id="radial-gradient-27" cx="740.42" cy="91.24" r="263.67" gradientUnits="userSpaceOnUse"><stop offset="0.33" stop-color="#ffe821"/><stop offset="0.34" stop-color="#ffe721"/><stop offset="0.77" stop-color="#ffc309"/><stop offset="1" stop-color="#ffb500"/></radialGradient><radialGradient id="radial-gradient-28" cx="746.72" cy="104.98" r="227.64" xlink:href="#radial-gradient-27"/><radialGradient id="radial-gradient-29" cx="757.16" cy="121.18" r="169.58" gradientUnits="userSpaceOnUse"><stop offset="0.14" stop-color="#ffd621"/><stop offset="0.5" stop-color="#f4b013"/><stop offset="0.93" stop-color="#e67d00"/></radialGradient><radialGradient id="radial-gradient-30" cx="759.37" cy="124.44" r="161.03" gradientTransform="translate(907.67 -614.33) rotate(85.26)" gradientUnits="userSpaceOnUse"><stop offset="0.33" stop-color="#ffd621"/><stop offset="0.39" stop-color="#ffcd1c"/><stop offset="0.6" stop-color="#ffb20d"/><stop offset="0.79" stop-color="#ffa203"/><stop offset="0.93" stop-color="#ff9c00"/></radialGradient><linearGradient id="linear-gradient-18" x1="787.52" y1="81" x2="787.52" y2="230.02" gradientUnits="userSpaceOnUse"><stop offset="0" stop-color="#fff"/><stop offset="0.15" stop-color="#d4d4d4"/><stop offset="0.49" stop-color="#696969"/><stop offset="0.81"/></linearGradient></defs><title>solarpanelv3</title><g class="cls-2"><g id="Layer_1" data-name="Layer 1"><g id="electric_battery" data-name="electric battery"><path class="cls-3" d="M631.2,1011.32c68.64.26,124.36-15.55,124.42-35.29s-55.51-36-124.16-36.22S507.11,955.35,507,975.1,562.56,1011.07,631.2,1011.32Z" transform="translate(-165.38 -20)"/><path class="cls-4" d="M760.63,872.73C754,883.61,744.42,893,735.05,897.31c-4.7,2.19-9.31,3.15-13.51,2.56a16.75,16.75,0,0,1-11-6.57,17.64,17.64,0,0,1-9.36-8.95,25.8,25.8,0,0,1-1.83-13c.83-9.47,5.15-20.18,11-29.69S725,823,735.05,814.82s21.38-15.06,32.38-19.18c-.16,9.86,2.59,21.59,3.16,34.78S769.54,858.26,760.63,872.73Z" transform="translate(-165.38 -20)"/><path class="cls-5" d="M760.63,872.73C754,883.61,744.42,893,735.05,897.31c-4.7,2.19-9.31,3.15-13.51,2.56a16.75,16.75,0,0,1-11-6.57,17.64,17.64,0,0,1-9.36-8.95,25.8,25.8,0,0,1-1.83-13c.83-9.47,5.15-20.18,11-29.69S725,823,735.05,814.82s21.38-15.06,32.38-19.18c-.16,9.86,2.59,21.59,3.16,34.78S769.54,858.26,760.63,872.73Z" transform="translate(-165.38 -20)"/><path class="cls-6" d="M694.13,908.44a2.5,2.5,0,0,0,3.07.19c5.69-3.6,10-8.87,14-14.06l.07-.09a19.84,19.84,0,0,0,5.9-1.28l1.32-.42c2.53-.78,5.88-1.81,9.33-2.78a1,1,0,0,0,.66-.69.81.81,0,0,0-.29-.84.76.76,0,0,0-.62-.12l-4.63,1-4.78,1c-.82.16-1.7.27-2.64.37L714,891l1.64-2.09c1.27-1.57,2.55-3.25,4-5.29a27.05,27.05,0,0,0,7.1-4.07c1-.72,2-1.41,2.86-2l1.7-1.1c2.89-1.88,5.86-3.87,8.87-5.58,1.17-.67,2.37-1.31,3.52-1.94a64.48,64.48,0,0,0,7-4.23c.66-.5,1.34-1,2-1.54a21.47,21.47,0,0,1,6.19-3.92.84.84,0,0,0,.57-.68.69.69,0,0,0-.87-.83,23,23,0,0,0-6.59,3.52c-.54.37-1.07.73-1.6,1.06A88,88,0,0,1,742,866.9l-2.9,1.42c-4.36,2.17-8.5,4.69-12,6.84-.77.48-1.6.93-2.49,1.41l-.2.11q1.41-2.17,2.78-4.35l5.89-9.53c3-4.91,5.86-10,8.27-14.61a22.39,22.39,0,0,0,2.75-2.76,31.25,31.25,0,0,1,2.31-2.43c2-1.79,4.18-3.47,6.28-5.11l.92-.73c2.8-2.19,6-4.75,7.45-8.31a.74.74,0,0,0-.31-1,.76.76,0,0,0-.89.17,78.11,78.11,0,0,1-11.7,10.17l-.66.48-1.92,1.38,2.92-5.71c2.74-5.32,5-9.68,7.27-13.68.86-1.55,1.65-3.19,2.39-4.78a55.9,55.9,0,0,1,4.45-8.31.86.86,0,0,0,.14-.71.74.74,0,0,0-.43-.54.8.8,0,0,0-.95.24,41.48,41.48,0,0,0-4.53,7.62c-.55,1.08-1.13,2.21-1.75,3.29-2.64,4.63-5.21,9.55-7.33,13.45-2.64,4.92-5.34,9.88-8,14.66-1.58,2.81-3.24,5.67-4.94,8.5l.46-1.67,1.51-5.68c.93-3.43,1.72-6.9,2.46-10.26l.49-2.08a28.36,28.36,0,0,0,1-7,.74.74,0,0,0-.4-.64.71.71,0,0,0-.62,0,.92.92,0,0,0-.45.44,36.94,36.94,0,0,0-1.77,6.64c-.23,1.15-.48,2.33-.79,3.46l-1.15,4.24c-.52,1.93-1.07,3.92-1.67,5.86q-.78,2.5-1.64,5l-1.71,5c-.24.69-.49,1.4-.76,2.1a36,36,0,0,0-1.68,5.25l-.06.09a163.45,163.45,0,0,1-14.41,19.7c-1,1.18-2,2.39-3,3.53l0-2.75a95.32,95.32,0,0,1,.43-10.71,99.81,99.81,0,0,1,2.21-10.8A76.36,76.36,0,0,0,715,854.9a.83.83,0,0,0-.37-.8.88.88,0,0,0-.79-.06.85.85,0,0,0-.5.56c-1.72,6.42-3.86,13.65-5.17,20.91-.36,2-.54,4-.74,5.87-.1,1-.22,2.11-.37,3.17l-.2,1.32c-.35,2.27-.79,4.84-.31,7.12-3.64,4.33-7.41,8.4-12.1,11.28a2.53,2.53,0,0,0-1.26,1.86A2.71,2.71,0,0,0,694.13,908.44Z" transform="translate(-165.38 -20)"/><path class="cls-7" d="M714.37,854.84c-.78,6.61-3.12,13-4,19.72-.62,5.06-.3,10.29-.55,15.48,1.4-1.71,2.8-3.4,4.22-5a163.35,163.35,0,0,0,14.61-20,62.66,62.66,0,0,1,2.44-7.39c1.13-3.37,2.31-6.7,3.36-10.06s1.91-6.76,2.83-10.14,1.23-6.86,2.53-10a.09.09,0,0,1,.17,0c.07,2.94-.87,6-1.51,8.91-.74,3.41-1.53,6.82-2.45,10.22s-1.79,6.84-2.78,10.25l-.46,1.66c5.55-8.85,10.52-18,15.49-27.23,2.42-4.49,4.78-9,7.32-13.44,2.07-3.65,3.55-7.54,6.2-10.81.12-.14.3,0,.2.18-2.79,4-4.51,8.88-6.88,13.14-2.52,4.52-4.91,9.12-7.28,13.72l-4.38,8.52a54.06,54.06,0,0,1,5-3.79,80.09,80.09,0,0,0,11.79-10.26c.07-.08.17,0,.14.09-1.54,3.67-5,6.22-7.95,8.56-2.22,1.74-4.43,3.45-6.53,5.33-1.83,1.62-3.23,3.74-5.13,5.23v0c-2.62,5-5.35,9.9-8.33,14.7-3.35,5.42-6.63,10.86-10.16,16.15,1.73-1,3.55-1.91,5.07-2.84,3.89-2.4,7.82-4.77,11.93-6.8a120.65,120.65,0,0,0,11.39-6c2.57-1.64,5.11-3.71,8-4.5.08,0,.1.11,0,.14-3.14,1-5.69,3.59-8.38,5.56a108,108,0,0,1-10.45,6.13c-3.63,2.07-7.11,4.47-10.61,6.71-3,1.92-6.56,5-10,6-1.33,1.86-2.7,3.68-4.14,5.47-.92,1.14-1.81,2.3-2.71,3.46,1.93-.39,4.07-.45,5.86-.82,3.13-.64,6.27-1.34,9.42-2.06.17,0,.19.22,0,.26-3.15.88-6.25,1.84-9.35,2.8-2.15.66-5.06,1.8-7.38,1.66-4.12,5.35-8.41,10.66-14.12,14.28a1.91,1.91,0,1,1-2.07-3.2c4.88-3,8.82-7.28,12.53-11.74a1,1,0,0,1-.08-.24c-.58-2.6.14-5.64.51-8.25.42-3,.55-6,1.09-9,1.27-7.05,3.31-14,5.15-20.83A.18.18,0,0,1,714.37,854.84Z" transform="translate(-165.38 -20)"/><path class="cls-8" d="M695.06,907.39a1.16,1.16,0,0,0,1.47.08c5.48-3.46,9.72-8.63,13.64-13.71l.31-.4a.67.67,0,0,1,.6-.28,15.07,15.07,0,0,0,5-1l-.47.06c-1,.11-2.1.22-3.09.41a.6.6,0,0,1-.52-.11.63.63,0,0,1-.17-.19.72.72,0,0,1,.08-.78c1.08-1.41,1.92-2.48,2.72-3.47,1.29-1.6,2.6-3.32,4.11-5.43a.75.75,0,0,1,.39-.28c2.3-.66,4.66-2.32,6.93-3.94,1-.73,2-1.43,2.91-2l1.71-1.1c2.91-1.89,5.89-3.89,9-5.63l1-.57-1,.52c-4.3,2.13-8.4,4.63-11.87,6.76-.79.49-1.64,1-2.54,1.45s-1.69.91-2.53,1.4a.67.67,0,0,1-.71,0,.52.52,0,0,1-.11-.1.72.72,0,0,1,0-.86c1.46-2.16,2.87-4.37,4.26-6.6l5.89-9.52c3.05-4.92,5.88-10.08,8.3-14.66a.78.78,0,0,1,.21-.26h0a22.14,22.14,0,0,0,2.64-2.66,34,34,0,0,1,2.42-2.54c.58-.51,1.17-1,1.76-1.51a35.79,35.79,0,0,0-3.35,2.63.67.67,0,0,1-.78.1l-.08-.05a.72.72,0,0,1-.24-.44l-2,3.53c-2.35,4.19-4.86,8.48-7.46,12.61a.7.7,0,0,1-.85.3l-.08,0a.68.68,0,0,1-.28-.76l.47-1.68c.43-1.52.85-3,1.26-4.55l.82-3.08-1.23,3.73-1.72,5c-.23.71-.5,1.43-.77,2.16a33,33,0,0,0-1.64,5.14.66.66,0,0,1-.11.26l-.13.21a165.44,165.44,0,0,1-14.54,19.87c-1.5,1.71-3,3.49-4.2,5a.72.72,0,0,1-.77.23.91.91,0,0,1-.17-.09.67.67,0,0,1-.26-.56c.08-1.55.11-3.13.12-4.65a96.47,96.47,0,0,1,.45-10.88l0-.17-.26,1.38c-.35,1.91-.51,3.78-.72,5.74-.1,1.06-.22,2.14-.37,3.23l-.2,1.34c-.36,2.28-.76,4.62-.31,6.65a.84.84,0,0,0,0,.12.68.68,0,0,1-.12.74c-3.78,4.56-7.72,8.83-12.7,11.89a1.1,1.1,0,0,0-.57.8A1.39,1.39,0,0,0,695.06,907.39Z" transform="translate(-165.38 -20)"/><path class="cls-9" d="M704.33,889.07c-5.09-5.39-6-13.21-4.48-21.63s5.4-17.54,10.46-25.75c5.87-9.5,14.69-18.74,24.74-26.87s21.38-15.06,32.38-19.18c-2.12,2-5.5,7.24-8.89,12.78s-6.76,11.41-8.53,14.84-4.68,10.21-6.67,13.26c-1,1.53-1.71,2.14-1.87,1s.21-4.12,1.31-9.71c1.51-8,.13-8.92-1.92-6.11s-4.93,9.38-6.81,16.59a175.74,175.74,0,0,1-5.86,18.53,92,92,0,0,1-8,16.56c-2.86,4.44-5.19,6.46-6.27,5.39s-.92-5.2.73-13.17c1.7-8.3,1.81-13.4,1.14-15.21s-2.15-.36-4.14,4.43a102.56,102.56,0,0,0-5.18,17.58A88.94,88.94,0,0,0,704.33,889.07Z" transform="translate(-165.38 -20)"/><path class="cls-10" d="M760.63,872.73C754,883.61,744.42,893,735.05,897.31c-4.7,2.19-9.31,3.15-13.51,2.56a16.75,16.75,0,0,1-11-6.57,17.64,17.64,0,0,1-9.36-8.95,25.8,25.8,0,0,1-1.83-13c.83-9.47,5.15-20.18,11-29.69S725,823,735.05,814.82s21.38-15.06,32.38-19.18c-.16,9.86,2.59,21.59,3.16,34.78S769.54,858.26,760.63,872.73Z" transform="translate(-165.38 -20)"/><path class="cls-4" d="M749.27,771.67a58.73,58.73,0,0,1-3.43,12.42,38.6,38.6,0,0,1-6.24,10.62,17.51,17.51,0,0,1-8.38,5.79,12.25,12.25,0,0,1-9.37-1.32,13.7,13.7,0,0,1-8.94-3.37,19.09,19.09,0,0,1-5.16-7.79,37.45,37.45,0,0,1-2.17-10.7,57.39,57.39,0,0,1,.64-12.6,66.62,66.62,0,0,1,3.11-11.62,108.38,108.38,0,0,1,5.29-12.25c1-2.06,2.13-4.1,3.31-6.11.58-1,1.17-2,1.79-3l.23-.37.12-.19.11-.1a4.81,4.81,0,0,0,.47-.44c.3-.42.59-.87.89-1.34,1.2-1.88,2.39-4.08,3.84-6.06a20.2,20.2,0,0,1,2.34-2.74,14.18,14.18,0,0,1,2.69-2,12.59,12.59,0,0,0,2,4.91c1,1.55,2.22,3,3.49,4.77.32.43.65.89,1,1.37a15.91,15.91,0,0,1,.94,1.65l1.83,2.81c1.21,1.92,2.43,3.93,3.56,6a56,56,0,0,1,5.49,14.18A45.84,45.84,0,0,1,749.27,771.67Z" transform="translate(-165.38 -20)"/><path class="cls-11" d="M749.27,771.67a58.73,58.73,0,0,1-3.43,12.42,38.6,38.6,0,0,1-6.24,10.62,17.51,17.51,0,0,1-8.38,5.79,12.25,12.25,0,0,1-9.37-1.32,13.7,13.7,0,0,1-8.94-3.37,19.09,19.09,0,0,1-5.16-7.79,37.45,37.45,0,0,1-2.17-10.7,57.39,57.39,0,0,1,.64-12.6,66.62,66.62,0,0,1,3.11-11.62,108.38,108.38,0,0,1,5.29-12.25c1-2.06,2.13-4.1,3.31-6.11.58-1,1.17-2,1.79-3l.23-.37.12-.19.11-.1a4.81,4.81,0,0,0,.47-.44c.3-.42.59-.87.89-1.34,1.2-1.88,2.39-4.08,3.84-6.06a20.2,20.2,0,0,1,2.34-2.74,14.18,14.18,0,0,1,2.69-2,12.59,12.59,0,0,0,2,4.91c1,1.55,2.22,3,3.49,4.77.32.43.65.89,1,1.37a15.91,15.91,0,0,1,.94,1.65l1.83,2.81c1.21,1.92,2.43,3.93,3.56,6a56,56,0,0,1,5.49,14.18A45.84,45.84,0,0,1,749.27,771.67Z" transform="translate(-165.38 -20)"/><path class="cls-6" d="M714.45,813.77a2,2,0,0,0,2.09-1,68.25,68.25,0,0,0,3.68-6.17,25.87,25.87,0,0,0,1.46-3.35c.38-1.17.7-2.3,1-3.45l0-.08a13.85,13.85,0,0,0,3.62-2.51l.77-.67c1.48-1.25,3.42-2.93,5.44-4.6a.67.67,0,0,0,.23-.65.58.58,0,0,0-.45-.48.51.51,0,0,0-.44.11l-2.8,2.07c-1,.71-1.93,1.4-2.91,2.08a19.38,19.38,0,0,1-1.67,1l-1,.56.5-1.85c.38-1.41.73-2.9,1.09-4.67a19.08,19.08,0,0,0,3.51-4.78c.45-.77.86-1.49,1.29-2.14l.81-1.22c1.35-2.07,2.73-4.23,4.24-6.18.58-.75,1.19-1.5,1.79-2.22s1.2-1.46,1.79-2.21c.29-.37.58-.75.86-1.13s.57-.83.84-1.27.62-1.08.91-1.62a16.57,16.57,0,0,1,3.06-4.49.64.64,0,0,0,.2-.63.54.54,0,0,0-.45-.43.47.47,0,0,0-.38.12,17.38,17.38,0,0,0-3.45,4.34c-.26.39-.52.79-.79,1.17a29.38,29.38,0,0,1-2.16,2.81L735,772.79l-1.52,1.7a86,86,0,0,0-6,7.94c-.37.53-.78,1.08-1.24,1.66l-.09.13.51-3.68c.35-2.61.69-5.32,1.08-8,.6-4.09,1.11-8.28,1.36-12a16.94,16.94,0,0,0,1-2.62,19.63,19.63,0,0,1,.82-2.26c.81-1.79,1.75-3.53,2.64-5.25l.39-.75c1.2-2.3,2.52-4.94,2.38-7.74a.54.54,0,0,0-1.06-.15A51.55,51.55,0,0,1,730.65,752l-.3.51-.87,1.47.21-4.61c.18-4.3.32-7.83.54-11.12.08-1.26.08-2.57.07-3.84s0-2.27,0-3.41,0-2.27.14-3.37a.59.59,0,0,0-.16-.49.56.56,0,0,0-.47-.2.58.58,0,0,0-.52.49,20.6,20.6,0,0,0-.31,3.16c-.08,1-.1,2.1-.11,3.12s0,1.79-.11,2.69c-.29,3.82-.44,7.79-.63,11-.24,4-.52,8-.92,11.93-.23,2.3-.52,4.66-.85,7l-.18-1.23-.63-4.15c-.39-2.52-.9-5-1.43-7.4l-.32-1.49a18.78,18.78,0,0,0-1.48-4.83.54.54,0,0,0-.46-.3.56.56,0,0,0-.43.16.7.7,0,0,0-.16.42,27,27,0,0,0,.87,4.8c.2.81.39,1.65.53,2.46l.51,3.09c.23,1.4.44,2.86.61,4.29.15,1.24.25,2.49.36,3.73l.27,3.84c.05.53.08,1.07.1,1.62a24,24,0,0,0,.43,4v.08a115.27,115.27,0,0,1-3.61,17.16c-.34,1.07-.66,2.15-1,3.15-.26-.61-.53-1.22-.8-1.81-1-2.34-2.18-4.71-3-7.11a63.91,63.91,0,0,1-1.85-7.73c-.43-2.13-.89-4.34-1.54-6.49a.62.62,0,0,0-.49-.43.65.65,0,0,0-.73.73,139.65,139.65,0,0,0,3,15.34c.37,1.38.85,2.71,1.29,4,.25.7.5,1.43.71,2.16l.26.92a15.54,15.54,0,0,0,1.87,4.75c-.32,1-.62,1.94-1,2.73s-.81,1.71-1.29,2.56c-1,1.73-2.13,3.4-3.4,5.28a2.27,2.27,0,0,0-.35,1.89A1.85,1.85,0,0,0,714.45,813.77Z" transform="translate(-165.38 -20)"/><path class="cls-7" d="M712.76,772.7c1.44,4.74,1.87,9.63,3.39,14.23,1.15,3.47,3,6.77,4.31,10.26.44-1.51.87-3,1.34-4.5a115.64,115.64,0,0,0,3.66-17.42,37.65,37.65,0,0,1-.54-5.61c-.2-2.59-.34-5.07-.63-7.58s-.72-5-1.13-7.4-1.27-4.8-1.39-7.2c0-.07.1-.08.13,0a26.06,26.06,0,0,1,1.75,6.2c.54,2.43,1,4.88,1.42,7.36s.79,5,1.08,7.53c0,.41.1.82.17,1.24a204.4,204.4,0,0,0,2.3-22.35c.22-3.65.37-7.31.64-11,.11-1.51.1-3,.15-4.49,0-.76.07-1.45.11-2.19a19.06,19.06,0,0,1,.26-2.23c0-.13.2-.08.19,0a25.79,25.79,0,0,0-.14,2.64c0,.86-.05,1.76,0,2.66,0,1.8.05,3.6-.06,5.35-.24,3.7-.38,7.42-.54,11.13l-.32,6.88a40.67,40.67,0,0,1,2.19-4,52.7,52.7,0,0,0,4.68-10.3.06.06,0,0,1,.12,0c.12,2.87-1.36,5.61-2.63,8-.93,1.82-1.91,3.6-2.74,5.45-.73,1.61-1.06,3.41-1.88,4.94h0c-.28,4-.78,8.06-1.37,12.06-.66,4.54-1.15,9.07-1.88,13.58.83-1.17,1.77-2.3,2.51-3.35a82.3,82.3,0,0,1,5.91-7.89l3-3.41c.51-.58,1-1.1,1.48-1.73s1-1.25,1.43-1.92c1.28-1.85,2.4-4,4.13-5.39,0,0,.1,0,0,.08-1.81,1.63-2.8,4.12-4.08,6.24-.39.63-.82,1.28-1.24,1.83s-.87,1.1-1.32,1.65c-.89,1.1-1.81,2.19-2.69,3.32-1.82,2.36-3.41,4.93-5.07,7.44-1.41,2.14-2.82,5.25-4.84,6.92-.33,1.61-.69,3.22-1.13,4.81l-.8,3.05c1.19-.78,2.61-1.44,3.71-2.2,1.92-1.33,3.82-2.73,5.71-4.15.11-.08.2.09.1.17-1.84,1.52-3.64,3.08-5.45,4.62-1.25,1.06-2.89,2.65-4.5,3.19-.31,1.18-.64,2.35-1,3.51a25.38,25.38,0,0,1-1.43,3.38,65.44,65.44,0,0,1-3.73,6.27,1.4,1.4,0,0,1-2,.53,1.44,1.44,0,0,1-.35-2.13c1.3-1.93,2.48-3.67,3.49-5.47a29.11,29.11,0,0,0,1.34-2.68c.35-.85.68-1.89,1-2.85a.79.79,0,0,1-.12-.15c-1.14-1.57-1.55-3.75-2.09-5.55-.63-2.1-1.44-4-2-6.16a143.49,143.49,0,0,1-2.93-15.29A.14.14,0,0,1,712.76,772.7Z" transform="translate(-165.38 -20)"/><path class="cls-8" d="M714.71,812.68a.89.89,0,0,0,1-.45,65.65,65.65,0,0,0,3.64-6.09,25.42,25.42,0,0,0,1.39-3.22c.36-1.1.68-2.22,1-3.34l.1-.34a.48.48,0,0,1,.33-.36,10.77,10.77,0,0,0,3.1-2L725,797c-.66.37-1.35.75-2,1.16a.52.52,0,0,1-.38.07.61.61,0,0,1-.18-.09.49.49,0,0,1-.17-.53l.8-3.06c.39-1.43.74-2.95,1.11-4.78a.52.52,0,0,1,.18-.3,17.65,17.65,0,0,0,3.43-4.64c.45-.78.88-1.51,1.32-2.18l.79-1.22c1.37-2.08,2.75-4.25,4.29-6.24l.51-.64-.55.62a83.51,83.51,0,0,0-5.89,7.84c-.38.55-.81,1.11-1.26,1.7s-.85,1.1-1.26,1.66a.47.47,0,0,1-.48.2.23.23,0,0,1-.11,0,.51.51,0,0,1-.28-.55c.3-1.85.57-3.72.81-5.58.35-2.62.69-5.32,1.08-8,.3-2.06.58-4.15.81-6.18s.41-4,.55-5.86a.68.68,0,0,1,.07-.23v0a14,14,0,0,0,1-2.5,24.26,24.26,0,0,1,.86-2.38c.24-.5.48-1,.73-1.51a30.5,30.5,0,0,0-1.46,2.71.47.47,0,0,1-.49.29h-.07a.48.48,0,0,1-.29-.21l-.27,2.89c-.35,3.43-.82,7-1.4,10.43a.51.51,0,0,1-.49.44h-.07a.51.51,0,0,1-.41-.42l-.16-1.26q-.21-1.7-.45-3.36l-.34-2.25c.1.93.18,1.86.25,2.78l.28,3.83c0,.55.08,1.1.1,1.66a22.26,22.26,0,0,0,.42,3.87.75.75,0,0,1,0,.21l0,.18a116.08,116.08,0,0,1-3.64,17.31c-.49,1.55-.94,3.14-1.34,4.49a.5.5,0,0,1-.45.36h-.14a.53.53,0,0,1-.34-.3c-.4-1-.85-2.09-1.3-3.09-1.05-2.36-2.2-4.75-3-7.21l0-.11.24,1c.36,1.35.82,2.61,1.28,4,.25.71.5,1.45.72,2.2l.27.93a13.86,13.86,0,0,0,1.75,4.46l.05.07a.52.52,0,0,1,.14.52c-1.1,4.08-3.3,7.31-5.91,11.17a.9.9,0,0,0,.51,1.45Z" transform="translate(-165.38 -20)"/><path class="cls-12" d="M716.44,798a14.51,14.51,0,0,1-6-5,24.14,24.14,0,0,1-3.52-7.69,50.11,50.11,0,0,1-.66-20.63,66.62,66.62,0,0,1,3.11-11.62,108.38,108.38,0,0,1,5.29-12.25c1-2.06,2.13-4.1,3.31-6.11.58-1,1.17-2,1.79-3l.23-.37.12-.19.11-.1a4.81,4.81,0,0,0,.47-.44c.3-.42.59-.87.89-1.34,1.2-1.88,2.39-4.08,3.84-6.06a20.2,20.2,0,0,1,2.34-2.74,14.18,14.18,0,0,1,2.69-2,10.45,10.45,0,0,0-1.69,4.43,53.09,53.09,0,0,0-.58,6.67l-.06.85c0,.27,0,.52-.07.8l-.16,1.73-.28,3.35c-.16,2.14-.29,4-.33,5.42-.07,2.77.08,8-.32,10.62-.19,1.29-.49,1.9-1,1.18s-1.11-2.74-2.13-6.68c-1.48-5.61-2.72-5.8-3.19-3.36s-.33,7.48.58,12.67c.37,2.07.7,4.32,1,6.63s.41,4.69.51,7.17a76.51,76.51,0,0,1-.39,13.32c-.55,3.74-1.48,5.75-2.53,5.36s-2.23-3.1-3.58-8.84c-1.42-6-2.81-9.54-3.78-10.6s-1.59.43-1.5,4.29a65,65,0,0,0,1.91,13.16A70,70,0,0,0,716.44,798Z" transform="translate(-165.38 -20)"/><path class="cls-13" d="M749.27,771.67a58.73,58.73,0,0,1-3.43,12.42,38.6,38.6,0,0,1-6.24,10.62,17.51,17.51,0,0,1-8.38,5.79,12.25,12.25,0,0,1-9.37-1.32,13.7,13.7,0,0,1-8.94-3.37,19.09,19.09,0,0,1-5.16-7.79,37.45,37.45,0,0,1-2.17-10.7,57.39,57.39,0,0,1,.64-12.6,66.62,66.62,0,0,1,3.11-11.62,108.38,108.38,0,0,1,5.29-12.25c1-2.06,2.13-4.1,3.31-6.11.58-1,1.17-2,1.79-3l.23-.37.12-.19.11-.1a4.81,4.81,0,0,0,.47-.44c.3-.42.59-.87.89-1.34,1.2-1.88,2.39-4.08,3.84-6.06a20.2,20.2,0,0,1,2.34-2.74,14.18,14.18,0,0,1,2.69-2,12.59,12.59,0,0,0,2,4.91c1,1.55,2.22,3,3.49,4.77.32.43.65.89,1,1.37a15.91,15.91,0,0,1,.94,1.65l1.83,2.81c1.21,1.92,2.43,3.93,3.56,6a56,56,0,0,1,5.49,14.18A45.84,45.84,0,0,1,749.27,771.67Z" transform="translate(-165.38 -20)"/><path class="cls-14" d="M755,953.64A68.49,68.49,0,0,1,741,960a46,46,0,0,1-14.48,2.41,20.71,20.71,0,0,1-11.69-3.24,14.68,14.68,0,0,1-6-9.58,16.31,16.31,0,0,1-3.75-10.75,22.78,22.78,0,0,1,3.19-10.67A44,44,0,0,1,716.4,918a67.87,67.87,0,0,1,12-9,80.71,80.71,0,0,1,13-6,130.63,130.63,0,0,1,15.23-4.52c2.68-.63,5.39-1.19,8.12-1.65,1.37-.24,2.74-.45,4.11-.64l.51-.07.26,0,.18,0a6.24,6.24,0,0,0,.77.09c.61,0,1.25-.12,1.9-.21,2.63-.34,5.55-.93,8.48-1.11a23.58,23.58,0,0,1,4.29,0,17.11,17.11,0,0,1,3.92.9,15,15,0,0,0-3,5.61c-.65,2.09-1.08,4.34-1.7,6.83-.15.63-.32,1.27-.52,1.93a18.51,18.51,0,0,1-.78,2.12l-1.19,3.82c-.82,2.58-1.73,5.22-2.79,7.88a67.23,67.23,0,0,1-8.79,15.86A53.78,53.78,0,0,1,755,953.64Z" transform="translate(-165.38 -20)"/><path class="cls-15" d="M755,953.64A68.49,68.49,0,0,1,741,960a46,46,0,0,1-14.48,2.41,20.71,20.71,0,0,1-11.69-3.24,14.68,14.68,0,0,1-6-9.58,16.31,16.31,0,0,1-3.75-10.75,22.78,22.78,0,0,1,3.19-10.67A44,44,0,0,1,716.4,918a67.87,67.87,0,0,1,12-9,80.71,80.71,0,0,1,13-6,130.63,130.63,0,0,1,15.23-4.52c2.68-.63,5.39-1.19,8.12-1.65,1.37-.24,2.74-.45,4.11-.64l.51-.07.26,0,.18,0a6.24,6.24,0,0,0,.77.09c.61,0,1.25-.12,1.9-.21,2.63-.34,5.55-.93,8.48-1.11a23.58,23.58,0,0,1,4.29,0,17.11,17.11,0,0,1,3.92.9,15,15,0,0,0-3,5.61c-.65,2.09-1.08,4.34-1.7,6.83-.15.63-.32,1.27-.52,1.93a18.51,18.51,0,0,1-.78,2.12l-1.19,3.82c-.82,2.58-1.73,5.22-2.79,7.88a67.23,67.23,0,0,1-8.79,15.86A53.78,53.78,0,0,1,755,953.64Z" transform="translate(-165.38 -20)"/><path class="cls-16" d="M689.84,954a2.37,2.37,0,0,0,2.49,1.16,81,81,0,0,0,8.46-1.34,31.32,31.32,0,0,0,4.17-1.23c1.36-.55,2.64-1.12,3.93-1.71l.09,0a16.33,16.33,0,0,0,5.07,1.39l1.2.2c2.27.4,5.29.88,8.37,1.46a.84.84,0,0,0,.77-.29.71.71,0,0,0,.09-.77.65.65,0,0,0-.44-.33l-4-1c-1.38-.34-2.76-.7-4.12-1.07-.7-.2-1.43-.47-2.2-.76l-1.27-.48,2.07-1c1.58-.73,3.21-1.54,5.1-2.57a22.74,22.74,0,0,0,7-.44c1.05-.17,2-.35,3-.45l1.73-.2c2.93-.35,5.95-.73,8.89-.85,1.14,0,2.29,0,3.41,0s2.25,0,3.38-.05c.57,0,1.13,0,1.7-.08s1.19-.12,1.8-.2,1.46-.26,2.18-.41a19.63,19.63,0,0,1,6.45-.63.78.78,0,0,0,.72-.31.67.67,0,0,0,.06-.74.75.75,0,0,0-.41-.26,21.22,21.22,0,0,0-6.6.17c-.56.06-1.12.13-1.69.18a37.42,37.42,0,0,1-4.21.17l-4-.12-2.74-.08a100.44,100.44,0,0,0-11.8.61c-.77.07-1.58.1-2.46.14h-.2l3.76-2.34c2.66-1.68,5.39-3.44,8.11-5.1,4.2-2.58,8.41-5.31,12-7.92a19.77,19.77,0,0,0,3.18-1.06,24.07,24.07,0,0,1,2.69-1c2.25-.63,4.57-1.09,6.82-1.59l1-.22c3-.66,6.44-1.47,8.88-3.73a.67.67,0,0,0,.11-.91.65.65,0,0,0-.77-.18,62.39,62.39,0,0,1-12.89,3.56l-.69.11-2,.34,4.37-3.34c4.07-3.12,7.41-5.69,10.58-8,1.22-.89,2.42-1.89,3.57-2.87s2.06-1.76,3.13-2.6,2.09-1.71,3.19-2.43a.76.76,0,0,0,.33-.53.69.69,0,0,0-.19-.58.68.68,0,0,0-.84-.11,26.05,26.05,0,0,0-3.13,2.14c-1,.69-2,1.51-2.94,2.27s-1.67,1.34-2.54,2c-3.7,2.66-7.46,5.55-10.52,7.81-3.83,2.83-7.74,5.67-11.61,8.28-2.28,1.54-4.64,3.08-7,4.56l1-1.1,3.31-3.76c2-2.27,3.9-4.64,5.68-7l1.12-1.43a21.8,21.8,0,0,0,3.29-5,.71.71,0,0,0-.08-.65.73.73,0,0,0-.48-.28.8.8,0,0,0-.5.17,32.51,32.51,0,0,0-3.73,4.47c-.59.8-1.21,1.62-1.85,2.36l-2.43,2.83c-1.11,1.29-2.27,2.59-3.46,3.84-1,1.08-2.08,2.13-3.14,3.18l-3.3,3.18c-.45.45-.92.89-1.41,1.33a29.6,29.6,0,0,0-3.3,3.42l-.08.06a137.56,137.56,0,0,1-18.46,9.8c-1.23.51-2.46,1.05-3.61,1.55.37-.7.72-1.42,1.06-2.11,1.34-2.74,2.63-5.6,4.22-8.16a79.16,79.16,0,0,1,5.65-7.6,78.83,78.83,0,0,0,4.77-6.37.76.76,0,0,0,0-.77.75.75,0,0,0-.61-.36.72.72,0,0,0-.62.25,169.15,169.15,0,0,0-11.78,14.41c-1,1.41-1.83,2.85-2.67,4.26-.46.76-.94,1.54-1.44,2.3l-.64.94a17.91,17.91,0,0,0-2.92,5.34,33.57,33.57,0,0,1-3.24,1.19,29.69,29.69,0,0,1-3.34.78c-2.33.43-4.73.65-7.41.93a2.73,2.73,0,0,0-2,1.12A2.23,2.23,0,0,0,689.84,954Z" transform="translate(-165.38 -20)"/><path class="cls-17" d="M726.11,921.05c-3.23,5-7.38,9.08-10.42,14-2.3,3.69-3.93,7.88-6.09,11.78,1.72-.75,3.43-1.52,5.14-2.21a138.54,138.54,0,0,0,18.73-10,45.32,45.32,0,0,1,4.72-4.78c2.22-2.16,4.37-4.19,6.45-6.37s4-4.44,5.91-6.69S754,912,756.07,910c.06,0,.15,0,.13.1-1,2.33-2.8,4.33-4.33,6.34-1.82,2.35-3.68,4.67-5.65,6.93s-4,4.53-6.07,6.74c-.33.35-.67.73-1,1.11a247.14,247.14,0,0,0,22.2-15c3.51-2.6,7-5.25,10.51-7.8,1.46-1.05,2.82-2.21,4.22-3.3.72-.55,1.39-1,2.1-1.57a23,23,0,0,1,2.22-1.46.12.12,0,0,1,.12.21c-.87.57-1.71,1.22-2.53,1.88s-1.64,1.31-2.45,2c-1.65,1.38-3.25,2.79-4.94,4-3.57,2.61-7.08,5.33-10.6,8l-6.53,5a50.39,50.39,0,0,1,5.3-1,62.56,62.56,0,0,0,13-3.59.07.07,0,0,1,.07.12c-2.52,2.32-6.16,3-9.36,3.75-2.38.53-4.74,1-7.08,1.65-2,.56-3.92,1.65-5.95,2.06h0c-3.9,2.83-8,5.45-12.07,8-4.66,2.86-9.18,5.88-13.87,8.65,1.71-.12,3.46-.13,5-.26a100.65,100.65,0,0,1,11.75-.61l5.43.17c.92,0,1.76.07,2.71,0s1.89-.07,2.84-.16c2.66-.24,5.49-.86,8.1-.35.07,0,0,.12,0,.12-2.88-.42-5.92.59-8.83,1a24.7,24.7,0,0,1-2.62.26c-.83,0-1.68.05-2.52.06-1.69,0-3.38,0-5.09.08-3.54.13-7.13.64-10.68,1-3,.35-6.95,1.44-10,.86q-2.58,1.41-5.26,2.66l-3.41,1.59c1.64.48,3.32,1.29,4.85,1.7,2.69.74,5.42,1.41,8.16,2,.16,0,.08.26-.07.24-2.81-.53-5.6-1-8.39-1.46-1.93-.33-4.63-.62-6.36-1.68-1.32.62-2.64,1.22-4,1.76a30.73,30.73,0,0,1-4.17,1.28,78.52,78.52,0,0,1-8.59,1.36,1.67,1.67,0,0,1-2-1.38,1.73,1.73,0,0,1,1.68-1.95c2.77-.29,5.26-.53,7.68-1,1.2-.23,2.38-.51,3.48-.83s2.24-.83,3.36-1.28a1.7,1.7,0,0,1,0-.22c.57-2.24,2.25-4.27,3.49-6.15,1.43-2.18,2.6-4.41,4.09-6.54a172.47,172.47,0,0,1,11.75-14.37C726,920.72,726.22,920.9,726.11,921.05Z" transform="translate(-165.38 -20)"/><path class="cls-18" d="M691,953.38a1.06,1.06,0,0,0,1.19.6,75.58,75.58,0,0,0,8.36-1.33,31.07,31.07,0,0,0,4-1.18c1.29-.52,2.56-1.08,3.81-1.66l.39-.18a.63.63,0,0,1,.57,0,13,13,0,0,0,4.23,1.28l-.39-.15c-.84-.33-1.71-.66-2.55-.92a.53.53,0,0,1-.36-.29.71.71,0,0,1-.06-.22.66.66,0,0,1,.36-.58l3.42-1.6c1.6-.72,3.26-1.57,5.21-2.63a.7.7,0,0,1,.42-.07,21.06,21.06,0,0,0,6.85-.4c1.06-.19,2.06-.36,3-.46l1.72-.2c3-.35,6-.74,9-.86l1,0-1,0a103,103,0,0,0-11.66.6c-.8.08-1.64.12-2.52.15s-1.67.07-2.48.12a.6.6,0,0,1-.56-.28.69.69,0,0,1-.05-.13.6.6,0,0,1,.29-.68c1.93-1.14,3.83-2.32,5.73-3.52,2.65-1.69,5.38-3.44,8.11-5.12,2.12-1.29,4.24-2.63,6.27-4s4-2.69,5.78-4a.88.88,0,0,1,.27-.1h0a18,18,0,0,0,3-1,26,26,0,0,1,2.85-1l1.92-.5a35.76,35.76,0,0,0-3.59.74.56.56,0,0,1-.64-.23l0-.06a.61.61,0,0,1,0-.44L750,925c-3.39,2.31-7,4.56-10.6,6.69a.62.62,0,0,1-.77-.11.35.35,0,0,0,0-.08.58.58,0,0,1,.08-.69l1-1.11c.94-1,1.84-2,2.73-3l1.8-2c-.77.8-1.56,1.58-2.36,2.35l-3.28,3.2c-.46.45-1,.89-1.44,1.35A26,26,0,0,0,734,935a.85.85,0,0,1-.17.16l-.2.11A137.48,137.48,0,0,1,715,945.13c-1.79.75-3.58,1.55-5.12,2.22a.63.63,0,0,1-.69-.14,1.1,1.1,0,0,1-.09-.14.58.58,0,0,1,0-.53c.64-1.16,1.25-2.37,1.83-3.55a91.15,91.15,0,0,1,4.29-8.27l.07-.11-.69,1c-1,1.35-1.75,2.73-2.63,4.18-.46.77-1,1.57-1.46,2.34l-.65,1a16.66,16.66,0,0,0-2.74,5,.18.18,0,0,0,0,.11.62.62,0,0,1-.38.53c-4.56,2.1-9.19,2.56-14.73,3.13a1.12,1.12,0,0,0-.85.45A1.1,1.1,0,0,0,691,953.38Z" transform="translate(-165.38 -20)"/><path class="cls-19" d="M705.75,943.79a17.56,17.56,0,0,1,0-9.35,29.16,29.16,0,0,1,4.35-9.1c4.1-5.9,10.53-11.69,18.36-16.37a80.71,80.71,0,0,1,13-6,130.63,130.63,0,0,1,15.23-4.52c2.68-.63,5.39-1.19,8.12-1.65,1.37-.24,2.74-.45,4.11-.64l.51-.07.26,0,.18,0a6.24,6.24,0,0,0,.77.09c.61,0,1.25-.12,1.9-.21,2.63-.34,5.55-.93,8.48-1.11a23.58,23.58,0,0,1,4.29,0,17.11,17.11,0,0,1,3.92.9,12.33,12.33,0,0,0-5.35,1.85,63.86,63.86,0,0,0-6.55,4.56l-.81.6c-.26.18-.51.36-.79.54L774,904.49l-3.27,2.3c-2.08,1.49-3.92,2.82-5.22,3.84-2.58,2-7.29,6.22-10,7.82-1.33.81-2.1,1-1.81,0s1.66-3.11,4.48-7.05c4-5.64,3.23-6.91.64-5.49s-7.11,5.41-11.15,10.21c-1.62,1.93-3.41,4-5.34,6s-4,3.95-6.16,5.93a90.93,90.93,0,0,1-12.48,9.83c-3.84,2.36-6.39,3-6.85,1.79s1.16-4.41,5.36-10c4.38-5.86,6.58-9.86,6.8-11.56s-1.6-1.12-5.07,1.91a77.9,77.9,0,0,0-10.56,11.81A84.41,84.41,0,0,0,705.75,943.79Z" transform="translate(-165.38 -20)"/><path class="cls-20" d="M755,953.64A68.49,68.49,0,0,1,741,960a46,46,0,0,1-14.48,2.41,20.71,20.71,0,0,1-11.69-3.24,14.68,14.68,0,0,1-6-9.58,16.31,16.31,0,0,1-3.75-10.75,22.78,22.78,0,0,1,3.19-10.67A44,44,0,0,1,716.4,918a67.87,67.87,0,0,1,12-9,80.71,80.71,0,0,1,13-6,130.63,130.63,0,0,1,15.23-4.52c2.68-.63,5.39-1.19,8.12-1.65,1.37-.24,2.74-.45,4.11-.64l.51-.07.26,0,.18,0a6.24,6.24,0,0,0,.77.09c.61,0,1.25-.12,1.9-.21,2.63-.34,5.55-.93,8.48-1.11a23.58,23.58,0,0,1,4.29,0,17.11,17.11,0,0,1,3.92.9,15,15,0,0,0-3,5.61c-.65,2.09-1.08,4.34-1.7,6.83-.15.63-.32,1.27-.52,1.93a18.51,18.51,0,0,1-.78,2.12l-1.19,3.82c-.82,2.58-1.73,5.22-2.79,7.88a67.23,67.23,0,0,1-8.79,15.86A53.78,53.78,0,0,1,755,953.64Z" transform="translate(-165.38 -20)"/><rect class="cls-21" x="441.63" y="689.35" width="44.71" height="44.71" rx="7.25"/><rect class="cls-22" x="442.75" y="690.47" width="42.48" height="42.48" rx="6.89"/><rect class="cls-23" x="442.75" y="690.47" width="42.48" height="42.48" rx="6.89"/><path class="cls-24" d="M682.56,723.78c0-.6-7.73-1.08-17.28-1.08h-72c-9.55,0-17.29.48-17.29,1.08v4.49c0,.6,7.74,1.08,17.29,1.08h72c9.55,0,17.28-.48,17.28-1.08Z" transform="translate(-165.38 -20)"/><path class="cls-21" d="M682.56,979.45c0-.78-7.73-1.42-17.28-1.42h-72c-9.55,0-17.29.64-17.29,1.42v5.89c0,.79,7.74,1.42,17.29,1.42h72c9.55,0,17.28-.63,17.28-1.42Z" transform="translate(-165.38 -20)"/><path class="cls-25" d="M409.21,704.25H518.75A13.14,13.14,0,0,1,531.9,717.4V951.08a13.15,13.15,0,0,1-13.15,13.15H409.21a13.15,13.15,0,0,1-13.15-13.15V717.4A13.15,13.15,0,0,1,409.21,704.25Z"/><path class="cls-26" d="M561.44,814.92V971.08a13.15,13.15,0,0,0,13.15,13.15H684.13a13.14,13.14,0,0,0,13.14-13.15V814.92Z" transform="translate(-165.38 -20)"/><g class="cls-27"><path class="cls-28" d="M583.15,914.17c2.94,3.68,9,4.7,15.31,5,11.27.48,16.93.59,28.28.59l-.1,25.65c-8.29,0-12.43-.15-20.67-.68a14.93,14.93,0,0,1-12.35-8.39C589.44,927.29,587.35,922.83,583.15,914.17ZM615,910.34c-4.74-9.1-7.12-13.64-11.87-22.52h0c-9.94.35-14.9.54-24.81.93,3.1,1.68,4.64,2.55,7.74,4.3-.79,1.36-1.18,2-2,3.37-7.25,12.07-1.53,21.16,11.78,21.65,3.41.13,7.17.3,11.52.42-3.83-.48-6-2.67-4.11-5.9,1.59-2.77,2.39-4.17,4-7Z" transform="translate(-165.38 -20)"/><path class="cls-28" d="M642.29,851.8c-4.59.66-8.23,5.84-11.41,11.52-5.71,10.23-8.57,15.41-14.27,25.65-8.5-5.06-12.75-7.57-21.25-12.22,4.15-7.4,6.24-11.17,10.4-18.75,2.65-4.8,7.31-7.92,12.6-7.88C627.93,850.49,632.72,850.84,642.29,851.8Zm-12,31.11c10,.22,15,.37,25,.78h0c4.83-8.84,7.24-13.19,12.06-21.55-3.12,1.56-4.69,2.37-7.81,4l-2-3.59c-7-13.06-17.83-13.24-24.5-1.15-1.71,3.11-3.63,6.5-5.83,10.44,2.25-3.28,5.14-4.16,7-.79,1.57,2.88,2.36,4.31,3.94,7.17C635,880.1,633.41,881,630.29,882.91Z" transform="translate(-165.38 -20)"/><path class="cls-28" d="M664.85,935.64c1.65-4.5-.91-9.93-4.07-15.32-5.69-9.68-8.52-14.7-14.17-24.84,8.57-5.09,12.86-7.61,21.43-12.27,4.15,7.28,6.23,10.86,10.4,17.77a13,13,0,0,1-.11,14C672.94,923,670.24,927.21,664.85,935.64ZM644.71,910.7c-5.22,8.89-7.84,13.39-13.05,22.31h0c5.15,8.83,7.73,13.21,12.9,21.73,0-3.71,0-5.58,0-9.29,1.59-.07,2.39-.11,4-.2,14.4-.68,19.54-10.83,12.73-22.16-1.74-2.91-3.61-6.17-5.8-10,1.61,3.54.88,6.55-2.85,6.64-3.19.11-4.78.16-8,.23C644.69,916.28,644.69,914.42,644.71,910.7Z" transform="translate(-165.38 -20)"/></g><path class="cls-29" d="M409.21,704.25H518.75A13.14,13.14,0,0,1,531.9,717.4V951.08a13.15,13.15,0,0,1-13.15,13.15H409.21a13.15,13.15,0,0,1-13.15-13.15V717.4A13.15,13.15,0,0,1,409.21,704.25Z"/><path class="cls-30" d="M409.21,704.25H518.75A13.14,13.14,0,0,1,531.9,717.4V951.08a13.15,13.15,0,0,1-13.15,13.15H409.21a13.15,13.15,0,0,1-13.15-13.15V717.4A13.15,13.15,0,0,1,409.21,704.25Z"/><path class="cls-31" d="M409.21,704.25H518.75A13.14,13.14,0,0,1,531.9,717.4V951.08a13.15,13.15,0,0,1-13.15,13.15H409.21a13.15,13.15,0,0,1-13.15-13.15V717.4A13.15,13.15,0,0,1,409.21,704.25Z"/><path class="cls-32" d="M409.21,704.25H518.75A13.14,13.14,0,0,1,531.9,717.4V951.08a13.15,13.15,0,0,1-13.15,13.15H409.21a13.15,13.15,0,0,1-13.15-13.15V717.4A13.15,13.15,0,0,1,409.21,704.25Z"/></g><path class="cls-33" d="M808.85,991.18c0,21.45-121.44,38.82-271.24,38.82s-271.24-17.37-271.24-38.82,121.44-38.81,271.24-38.81S808.85,969.74,808.85,991.18Z" transform="translate(-165.38 -20)"/><path class="cls-34" d="M474.77,955.51v32.27h.08c1.12,7.21,28.39,13,62,13s60.86-5.79,62-13h.1V955.51Z" transform="translate(-165.38 -20)"/><path class="cls-35" d="M598.7,955.72c0,7.45-27.78,13.45-62.07,13.45s-62.09-6-62.09-13.45,27.79-9.66,62.09-9.66S598.7,948.3,598.7,955.72Z" transform="translate(-165.38 -20)"/><path class="cls-36" d="M579.15,956.62,566.74,618.23H505.61L493.16,956.62h0c0,5,16.9,9,43,9s43-4,43-9h0Z" transform="translate(-165.38 -20)"/><path class="cls-37" d="M569.52,718.28l-1.86-73s-35.13-20.66-62.66,1.06c-.85,12-3,71.47-2.74,71.36C539.08,701.6,569.52,718.28,569.52,718.28Z" transform="translate(-165.38 -20)"/><path class="cls-38" d="M203.17,653.72c-28.75-.18-39.79-27.63-37.5-40.19l77-380.63c2.26-12.56,14.08-22.74,26.4-22.74l532.76-1.94c12.31,0,24.25,10.05,26.65,22.47l80,377.92c1.79,17-12.48,41-36.68,41Z" transform="translate(-165.38 -20)"/><path class="cls-39" d="M906.8,602.32l-3.81-18c-.73,16.2-14.34,36-36.24,36l-658.73,4c-25.42-.17-36.75-21.83-37.2-35.18l-3.65,18c-2.29,12.43,8.71,39.65,37.34,39.81l665.77-4C894.39,643,908.61,619.22,906.8,602.32Z" transform="translate(-165.38 -20)"/><path class="cls-40" d="M874.14,587.49c2,10.74-7.91,19.56-22.23,19.61l-629.58,3.51c-14.3.06-24.37-8.67-22.49-19.55l59.75-346.7c1.89-10.87,12.65-19.67,24-19.67l502.05-.17c11.37,0,22.3,8.71,24.29,19.48Z" transform="translate(-165.38 -20)"/><path class="cls-41" d="M908.49,608.61l-3.84-18.14c-.74,16.34-14.41,36.3-36.37,36.3l-661.59,4.06c-25.53-.15-36.91-22-37.35-35.48l-3.67,18.18c-2.29,12.56,8.75,40,37.5,40.19l668.64-4.09C896,649.63,910.28,625.66,908.49,608.61Z" transform="translate(-165.38 -20)"/><g class="cls-42"><path class="cls-43" d="M689,467.23l101.81-.38c6.87,0,38-20.66,37.25-24.67L817.2,382.3c-.73-4-37.06-24.43-43.51-24.43l-95.42.24c-6.43,0-37.52,20.62-37.27,24.63l4.47,60.05C645.75,446.83,682.09,467.23,689,467.23Z" transform="translate(-165.38 -20)"/><path class="cls-44" d="M488.56,467.49l101.83-.37c6.86,0,40.41-20.66,40.16-24.72l-3.69-60.06c-.27-4-34.15-24.47-40.58-24.47l-95.46.2c-6.44,0-40,20.67-40.15,24.72L448,443C447.81,447.07,481.72,467.5,488.56,467.49Z" transform="translate(-165.38 -20)"/><path class="cls-45" d="M398.7,357.87l-95.45.24c-6.45,0-42.47,20.72-43.12,24.77l-9.87,60.38c-.68,4,30.76,24.56,37.62,24.54l101.83-.38c6.82,0,42.85-20.7,43.1-24.76l3.51-60.23C436.54,378.38,405.12,357.87,398.7,357.87Z" transform="translate(-165.38 -20)"/><path class="cls-46" d="M700.46,596.55l109.62-.37c7.41,0,40.91-22.25,40.1-26.59l-11.64-64.45c-.79-4.34-39.9-26.3-46.85-26.3L689,479.07c-7,0-40.41,22.2-40.11,26.53l4.79,64.65C653.93,574.62,693.05,596.55,700.46,596.55Z" transform="translate(-165.38 -20)"/><path class="cls-47" d="M484.69,596.85l109.63-.37c7.39,0,43.5-22.27,43.26-26.64l-4-64.64c-.29-4.36-36.77-26.36-43.69-26.36l-102.79.21c-6.91,0-43.06,22.24-43.21,26.6L441,570.48C440.82,574.87,477.31,596.88,484.69,596.85Z" transform="translate(-165.38 -20)"/><path class="cls-48" d="M387.92,478.84l-102.77.23c-6.95,0-45.72,22.33-46.43,26.69l-10.63,65c-.72,4.35,33.13,26.44,40.52,26.42l109.63-.4c7.36,0,46.14-22.29,46.39-26.68l3.81-64.83C428.69,500.93,394.83,478.84,387.92,478.84Z" transform="translate(-165.38 -20)"/><path class="cls-49" d="M492.89,346.31l94.89-.19c6.4,0,37.6-20.61,37.34-24.65l-3.73-60c-.24-4.05-31.72-24.57-37.75-24.57l-88.51,0c-6,0-37.17,20.61-37.33,24.68l-2.67,60.19C454.94,325.82,486.49,346.34,492.89,346.31Z" transform="translate(-165.38 -20)"/><path class="cls-50" d="M410.4,236.86l-88.55.08c-6,0-39.6,20.62-40.27,24.69L271.74,322c-.69,4.07,28.34,24.64,34.76,24.62l94.9-.21c6.41,0,40.05-20.66,40.28-24.71l3.5-60.22C445.44,257.4,416.36,236.86,410.4,236.86Z" transform="translate(-165.38 -20)"/><path class="cls-51" d="M633.09,261.47l3.49,60.22c.26,4.05,33.88,24.7,40.28,24.71l94.9.21c6.42,0,35.45-20.55,34.79-24.62l-9.86-60.36c-.65-4.07-34.33-24.69-40.27-24.69l-88.58-.08C661.92,236.86,632.83,257.4,633.09,261.47Z" transform="translate(-165.38 -20)"/></g><path class="cls-52" d="M689,464.56l101.81-.37c6.87-.05,38-20.66,37.25-24.67L817.2,379.63c-.73-4-37.06-24.42-43.51-24.42l-95.42.23c-6.43,0-37.52,20.61-37.27,24.63l4.47,60C645.75,444.17,682.09,464.56,689,464.56Z" transform="translate(-165.38 -20)"/><path class="cls-53" d="M488.56,464.8l101.83-.37c6.86,0,40.41-20.65,40.16-24.71l-3.69-60.05c-.27-4-34.15-24.46-40.58-24.46l-95.46.19c-6.44,0-40,20.67-40.15,24.72L448,440.32C447.81,444.4,481.72,464.82,488.56,464.8Z" transform="translate(-165.38 -20)"/><path class="cls-54" d="M398.7,355.21l-95.45.23c-6.45,0-42.47,20.69-43.12,24.76l-9.87,60.39c-.68,4,30.76,24.57,37.62,24.54l101.83-.37c6.82,0,42.85-20.71,43.1-24.77l3.51-60.24C436.54,375.72,405.12,355.21,398.7,355.21Z" transform="translate(-165.38 -20)"/><path class="cls-55" d="M700.46,593.89l109.62-.36c7.41-.06,40.91-22.27,40.1-26.6l-11.64-64.49c-.79-4.3-39.9-26.28-46.85-26.26L689,476.41c-7,0-40.41,22.21-40.11,26.53l4.79,64.65C653.93,571.94,693.05,593.89,700.46,593.89Z" transform="translate(-165.38 -20)"/><path class="cls-56" d="M484.69,594.18l109.63-.39c7.39,0,43.5-22.26,43.26-26.63l-4-64.63c-.29-4.35-36.77-26.37-43.69-26.35l-102.79.17c-6.91,0-43.06,22.29-43.21,26.64L441,567.8C440.82,572.2,477.31,594.19,484.69,594.18Z" transform="translate(-165.38 -20)"/><path class="cls-57" d="M387.92,476.18l-102.77.23c-6.95,0-45.72,22.32-46.43,26.67l-10.63,65c-.72,4.36,33.13,26.45,40.52,26.44l109.63-.4c7.36,0,46.14-22.33,46.39-26.68l3.81-64.85C428.69,498.25,394.83,476.16,387.92,476.18Z" transform="translate(-165.38 -20)"/><path class="cls-58" d="M492.89,343.63l94.89-.17c6.4,0,37.6-20.65,37.34-24.67l-3.73-60c-.24-4-31.72-24.57-37.75-24.57l-88.51,0c-6,0-37.17,20.59-37.33,24.68l-2.67,60.15C454.94,323.15,486.49,343.65,492.89,343.63Z" transform="translate(-165.38 -20)"/><path class="cls-59" d="M410.4,234.19l-88.55.06c-6,0-39.6,20.64-40.27,24.72l-9.84,60.35c-.69,4.06,28.34,24.63,34.76,24.61l94.9-.21c6.41,0,40.05-20.66,40.28-24.7l3.5-60.21C445.44,254.75,416.36,234.19,410.4,234.19Z" transform="translate(-165.38 -20)"/><path class="cls-60" d="M633.09,258.81,636.58,319c.26,4,33.88,24.7,40.28,24.7l94.9.21c6.42,0,35.45-20.55,34.79-24.61L796.69,259c-.65-4.08-34.33-24.72-40.27-24.72l-88.58-.06C661.92,234.19,632.83,254.75,633.09,258.81Z" transform="translate(-165.38 -20)"/><path class="cls-61" d="M781.54,231.61c19.72,25.58,28.2,49.21,28.2,80.08,0,102-121.57,184.63-271.54,184.63S266.67,413.65,266.67,311.69c0-29,9.81-56.37,27.3-80.77Z" transform="translate(-165.38 -20)"/><g class="cls-62"><g class="cls-63"><rect class="cls-28" x="84.27" y="411.91" width="372.01" height="4.28" transform="translate(-350.22 587.32) rotate(-79.87)"/><polygon class="cls-28" points="169.11 211.24 164.88 210.59 107.9 576.86 112.14 577.51 169.11 211.24"/><rect class="cls-28" x="152.73" y="411.91" width="369.51" height="4.29" transform="translate(-283.05 673.64) rotate(-82.38)"/><polygon class="cls-28" points="228.2 211.15 223.94 210.68 183.25 576.96 187.5 577.42 228.2 211.15"/><polygon class="cls-28" points="257.74 211.11 253.48 210.72 220.92 577 225.19 577.38 257.74 211.11"/><polygon class="cls-28" points="316.83 211.01 312.55 210.83 296.27 577.1 300.55 577.28 316.83 211.01"/><polygon class="cls-28" points="346.37 210.97 342.08 210.87 333.94 577.14 338.23 577.24 346.37 210.97"/><rect class="cls-28" x="371.63" y="210.92" width="4.28" height="366.27"/><polygon class="cls-28" points="413.58 577.14 405.44 210.87 401.16 210.97 409.3 577.24 413.58 577.14"/><polygon class="cls-28" points="451.26 577.1 434.98 210.83 430.7 211.01 446.98 577.28 451.26 577.1"/><polygon class="cls-28" points="526.62 577 494.06 210.72 489.79 211.11 522.35 577.38 526.62 577"/><rect class="cls-28" x="705.05" y="229.79" width="4.27" height="368.52" transform="translate(-206.77 60.62) rotate(-6.34)"/><rect class="cls-28" x="738.65" y="229.3" width="4.29" height="369.51" transform="matrix(0.99, -0.13, 0.13, 0.99, -213.6, 81.53)"/><polygon class="cls-28" points="639.62 576.86 582.65 210.59 578.42 211.24 635.39 577.51 639.62 576.86"/><rect class="cls-28" x="805.87" y="228.05" width="4.28" height="372.01" transform="translate(-225.37 127.81) rotate(-10.08)"/></g></g><path class="cls-64" d="M958.45,191.06c-44.21,11.9-48.35,23.26-6.5,47.37-48.17-1.27-50.35,10.24-18.34,42.38-43.05-13.29-51.9-5.95-28.42,35.31-39.83-25.1-47.33-16.28-36.38,26.63-29.8-31.87-41.15-29.64-42.31,16.18-21.61-39.77-33-35.94-46.24,4.66-10.21-40.6-21.47-44.43-45.27-7.86,1.23-43-10.07-45.56-40-18.46,11.12-38.14,3.58-46.6-33.26-27.39,20.89-35.37,12.49-43.07-25.37-34.51,26.81-27.41,24.18-38.56-16-40.09,34.1-21,30.62-32.31-5.65-44.16,36.27-11.57,39.75-22.9,6-44.07,39.92-1.31,42.59-12.45,16.28-39.87,37.35,8.58,45.72.86,25.47-34.19,36.2,18.94,43.78,10.53,33.2-27.06,29.43,26.55,40.69,23.92,39.81-18.2,23.42,35.73,34.67,32,44.93-7.73,13.16,39.7,24.58,43.46,45.88,4.57,1.43,44.92,12.75,47.21,42,16-10.43,42.29-2.89,51,36.26,26.27-22.8,40.9-14,48.25,28.5,34.93-31.45,32.17-29.22,43.67,18.6,42.1C910.1,168.21,914.24,179.54,958.45,191.06Z" transform="translate(-165.38 -20)"/><path class="cls-65" d="M935,191.16c-38.17,10.28-41.74,20.07-5.61,40.9-41.58-1.1-43.47,8.84-15.84,36.59-37.17-11.48-44.81-5.14-24.53,30.49-34.39-21.68-40.86-14.06-31.41,23-25.73-27.51-35.53-25.6-36.53,14-18.65-34.33-28.53-31-39.91,4-8.83-35-18.55-38.35-39.09-6.78,1.06-37.11-8.7-39.34-34.57-15.94,9.6-32.93,3.09-40.23-28.72-23.64,18-30.55,10.79-37.19-21.9-29.8C680,240.28,677.72,230.66,643,229.34c29.44-18.1,26.45-27.89-4.88-38.13,31.33-10,34.32-19.77,5.17-38.05,34.46-1.12,36.77-10.75,14.06-34.42,32.24,7.4,39.47.75,22-29.51,31.25,16.35,37.79,9.08,28.66-23.37,25.41,22.92,35.13,20.65,34.38-15.71,20.21,30.85,29.93,27.6,38.79-6.68,11.35,34.28,21.22,37.53,39.6,4,1.24,38.79,11,40.76,36.28,13.77-9,36.51-2.49,44.08,31.31,22.68C868.67,119.18,876.27,125.53,913,114c-27.15,27.77-25.22,37.7,16.06,36.35C893.22,171.44,896.79,181.21,935,191.16Z" transform="translate(-165.38 -20)"/><path class="cls-66" d="M897.33,185.86A110.52,110.52,0,1,1,786.82,75.35,110.52,110.52,0,0,1,897.33,185.86Z" transform="translate(-165.38 -20)"/><circle class="cls-67" cx="787.53" cy="185.86" r="104.94" transform="translate(371.84 935.34) rotate(-85.26)"/><path class="cls-68" d="M873.87,155.51c0,41.15-38.66,74.51-86.34,74.51s-86.35-33.36-86.35-74.51S739.84,81,787.53,81,873.87,114.36,873.87,155.51Z" transform="translate(-165.38 -20)"/></g></g></svg>